Walking05_kinetics.mot
version=1
nRows=36
nColumns=19
inDegrees=yes
endheader
time	1_ground_force_vx	1_ground_force_vy	1_ground_force_vz	1_ground_force_px	1_ground_force_py	1_ground_force_pz	2_ground_force_vx	2_ground_force_vy	2_ground_force_vz	2_ground_force_px	2_ground_force_py	2_ground_force_pz	1_ground_torque_x	1_ground_torque_y	1_ground_torque_z	2_ground_torque_x	2_ground_torque_y	2_ground_torque_z
  0.24500000	-13.07762773	453.94420188	-29.96355968	 -0.30589191	 -0.00044218	  0.15937786	  0.00000000	  0.00000000	  0.00000000	  0.30181907	  0.00246885	 -0.10097818	  0.00127997	  0.98884083	 -0.00062950	  0.00000000	  0.00000000	  0.00000000
  0.24600000	-12.99803579	452.51522315	-29.73299452	 -0.30509869	 -0.00044316	  0.15945488	  0.00000000	  0.00000000	  0.00000000	  0.30181907	  0.00246885	 -0.10097818	  0.00126962	  0.98084346	 -0.00062441	  0.00000000	  0.00000000	  0.00000000
  0.24700000	-12.93192027	451.14085296	-29.50592391	 -0.30431306	 -0.00044412	  0.15953750	  0.00000000	  0.00000000	  0.00000000	  0.30181907	  0.00246885	 -0.10097818	  0.00126012	  0.97350441	 -0.00061974	  0.00000000	  0.00000000	  0.00000000
  0.24800000	-12.87378818	449.81424513	-29.28083281	 -0.30353935	 -0.00044507	  0.15962479	  0.00000000	  0.00000000	  0.00000000	  0.30181907	  0.00246885	 -0.10097818	  0.00125213	  0.96733673	 -0.00061581	  0.00000000	  0.00000000	  0.00000000
  0.24900000	-12.81858878	448.52694139	-29.05517015	 -0.30277981	 -0.00044599	  0.15971507	  0.00000000	  0.00000000	  0.00000000	  0.30181907	  0.00246885	 -0.10097818	  0.00124640	  0.96291090	 -0.00061299	  0.00000000	  0.00000000	  0.00000000
  0.25000000	-12.76185492	447.27181436	-28.82672702	 -0.30203456	 -0.00044690	  0.15980649	  0.00000000	  0.00000000	  0.00000000	  0.30181907	  0.00246885	 -0.10097818	  0.00124343	  0.96061185	 -0.00061153	  0.00000000	  0.00000000	  0.00000000
  0.25100000	-12.69944111	446.04628774	-28.59424626	 -0.30130204	 -0.00044779	  0.15989784	  0.00000000	  0.00000000	  0.00000000	  0.30181907	  0.00246885	 -0.10097818	  0.00124324	  0.96046888	 -0.00061144	  0.00000000	  0.00000000	  0.00000000
  0.25200000	-12.62760186	444.85285883	-28.35731057	 -0.30057999	 -0.00044866	  0.15998874	  0.00000000	  0.00000000	  0.00000000	  0.30181907	  0.00246885	 -0.10097818	  0.00124545	  0.96217436	 -0.00061252	  0.00000000	  0.00000000	  0.00000000
  0.25300000	-12.54381394	443.69542098	-28.11568946	 -0.29986645	 -0.00044953	  0.16007909	  0.00000000	  0.00000000	  0.00000000	  0.30181907	  0.00246885	 -0.10097818	  0.00124955	  0.96533931	 -0.00061454	  0.00000000	  0.00000000	  0.00000000
  0.25400000	-12.44758174	442.57512849	-27.86883271	 -0.29916057	 -0.00045039	  0.16016827	  0.00000000	  0.00000000	  0.00000000	  0.30181907	  0.00246885	 -0.10097818	  0.00125530	  0.96978248	 -0.00061737	  0.00000000	  0.00000000	  0.00000000
  0.25500000	-12.34012050	441.49103124	-27.61633289	 -0.29846243	 -0.00045124	  0.16025488	  0.00000000	  0.00000000	  0.00000000	  0.30181907	  0.00246885	 -0.10097818	  0.00126280	  0.97558049	 -0.00062106	  0.00000000	  0.00000000	  0.00000000
  0.25600000	-12.22296435	440.44526408	-27.35918854	 -0.29777228	 -0.00045208	  0.16033717	  0.00000000	  0.00000000	  0.00000000	  0.30181907	  0.00246885	 -0.10097818	  0.00127224	  0.98287266	 -0.00062570	  0.00000000	  0.00000000	  0.00000000
  0.25700000	-12.09674278	439.44692744	-27.10053538	 -0.29709016	 -0.00045291	  0.16041334	  0.00000000	  0.00000000	  0.00000000	  0.30181907	  0.00246885	 -0.10097818	  0.00128363	  0.99167199	 -0.00063130	  0.00000000	  0.00000000	  0.00000000
  0.25800000	-11.96103266	438.51057970	-26.84494433	 -0.29641654	 -0.00045374	  0.16048144	  0.00000000	  0.00000000	  0.00000000	  0.30181907	  0.00246885	 -0.10097818	  0.00129682	  1.00185986	 -0.00063779	  0.00000000	  0.00000000	  0.00000000
  0.25900000	-11.81500490	437.65161523	-26.59696171	 -0.29575320	 -0.00045456	  0.16053911	  0.00000000	  0.00000000	  0.00000000	  0.30181907	  0.00246885	 -0.10097818	  0.00131161	  1.01328287	 -0.00064506	  0.00000000	  0.00000000	  0.00000000
  0.26000000	-11.65825565	436.88257417	-26.35999862	 -0.29510260	 -0.00045538	  0.16058385	  0.00000000	  0.00000000	  0.00000000	  0.30181907	  0.00246885	 -0.10097818	  0.00132781	  1.02579777	 -0.00065303	  0.00000000	  0.00000000	  0.00000000
  0.26100000	-11.49147846	436.21162284	-26.13587684	 -0.29446627	 -0.00045618	  0.16061384	  0.00000000	  0.00000000	  0.00000000	  0.30181907	  0.00246885	 -0.10097818	  0.00134522	  1.03925512	 -0.00066159	  0.00000000	  0.00000000	  0.00000000
  0.26200000	-11.31654775	435.64298960	-25.92488036	 -0.29384380	 -0.00045698	  0.16062876	  0.00000000	  0.00000000	  0.00000000	  0.30181907	  0.00246885	 -0.10097818	  0.00136372	  1.05354741	 -0.00067069	  0.00000000	  0.00000000	  0.00000000
  0.26300000	-11.13579405	435.17884137	-25.72614322	 -0.29323386	 -0.00045777	  0.16063026	  0.00000000	  0.00000000	  0.00000000	  0.30181907	  0.00246885	 -0.10097818	  0.00138345	  1.06878302	 -0.00068039	  0.00000000	  0.00000000	  0.00000000
  0.26400000	-10.95104795	434.82079289	-25.53806595	 -0.29263593	 -0.00045854	  0.16062171	  0.00000000	  0.00000000	  0.00000000	  0.30181907	  0.00246885	 -0.10097818	  0.00140499	  1.08542683	 -0.00069099	  0.00000000	  0.00000000	  0.00000000
  0.26500000	-10.76324230	434.56893302	-25.35843336	 -0.29205069	 -0.00045931	  0.16060737	  0.00000000	  0.00000000	  0.00000000	  0.30181907	  0.00246885	 -0.10097818	  0.00142927	  1.10418308	 -0.00070293	  0.00000000	  0.00000000	  0.00000000
  0.26600000	-10.57268124	434.41879679	-25.18426509	 -0.29147907	 -0.00046006	  0.16059099	  0.00000000	  0.00000000	  0.00000000	  0.30181907	  0.00246885	 -0.10097818	  0.00145705	  1.12564597	 -0.00071659	  0.00000000	  0.00000000	  0.00000000
  0.26700000	-10.37952374	434.35969852	-25.01181042	 -0.29092126	 -0.00046079	  0.16057501	  0.00000000	  0.00000000	  0.00000000	  0.30181907	  0.00246885	 -0.10097818	  0.00148860	  1.15002331	 -0.00073211	  0.00000000	  0.00000000	  0.00000000
  0.26800000	-10.18408769	434.37674889	-24.83697921	 -0.29037671	 -0.00046151	  0.16056083	  0.00000000	  0.00000000	  0.00000000	  0.30181907	  0.00246885	 -0.10097818	  0.00152371	  1.17714643	 -0.00074938	  0.00000000	  0.00000000	  0.00000000
  0.26900000	 -9.98678041	434.45476958	-24.65604876	 -0.28984471	 -0.00046220	  0.16054943	  0.00000000	  0.00000000	  0.00000000	  0.30181907	  0.00246885	 -0.10097818	  0.00156190	  1.20664736	 -0.00076816	  0.00000000	  0.00000000	  0.00000000
  0.27000000	 -9.78751614	434.58122156	-24.46636332	 -0.28932454	 -0.00046288	  0.16054139	  0.00000000	  0.00000000	  0.00000000	  0.30181907	  0.00246885	 -0.10097818	  0.00160260	  1.23809353	 -0.00078817	  0.00000000	  0.00000000	  0.00000000
  0.27100000	 -9.58486727	434.74737875	-24.26685807	 -0.28881526	 -0.00046354	  0.16053623	  0.00000000	  0.00000000	  0.00000000	  0.30181907	  0.00246885	 -0.10097818	  0.00164524	  1.27103207	 -0.00080914	  0.00000000	  0.00000000	  0.00000000
  0.27200000	 -9.37583354	434.94821498	-24.05815819	 -0.28831535	 -0.00046419	  0.16053208	  0.00000000	  0.00000000	  0.00000000	  0.30181907	  0.00246885	 -0.10097818	  0.00168922	  1.30500579	 -0.00083077	  0.00000000	  0.00000000	  0.00000000
  0.27300000	 -9.15678223	435.18140560	-23.84211500	 -0.28782267	 -0.00046484	  0.16052661	  0.00000000	  0.00000000	  0.00000000	  0.30181907	  0.00246885	 -0.10097818	  0.00173398	  1.33959219	 -0.00085279	  0.00000000	  0.00000000	  0.00000000
  0.27400000	 -8.92489239	435.44576816	-23.62109857	 -0.28733472	 -0.00046547	  0.16051822	  0.00000000	  0.00000000	  0.00000000	  0.30181907	  0.00246885	 -0.10097818	  0.00177914	  1.37447704	 -0.00087500	  0.00000000	  0.00000000	  0.00000000
  0.27500000	 -8.67910101	435.73940507	-23.39747910	 -0.28684933	 -0.00046611	  0.16050644	  0.00000000	  0.00000000	  0.00000000	  0.30181907	  0.00246885	 -0.10097818	  0.00182455	  1.40956223	 -0.00089733	  0.00000000	  0.00000000	  0.00000000
  0.27600000	 -8.42026348	436.05795461	-23.17338282	 -0.28636543	 -0.00046674	  0.16049143	  0.00000000	  0.00000000	  0.00000000	  0.30181907	  0.00246885	 -0.10097818	  0.00187053	  1.44507897	 -0.00091994	  0.00000000	  0.00000000	  0.00000000
  0.27700000	 -8.15064751	436.39390286	-22.95056548	 -0.28588333	 -0.00046738	  0.16047324	  0.00000000	  0.00000000	  0.00000000	  0.30181907	  0.00246885	 -0.10097818	  0.00191782	  1.48161633	 -0.00094320	  0.00000000	  0.00000000	  0.00000000
  0.27800000	 -7.87294591	436.73757885	-22.73028529	 -0.28540405	 -0.00046801	  0.16045141	  0.00000000	  0.00000000	  0.00000000	  0.30181907	  0.00246885	 -0.10097818	  0.00196750	  1.51999667	 -0.00096764	  0.00000000	  0.00000000	  0.00000000
  0.27900000	 -7.58931144	437.07912738	-22.51317890	 -0.28492826	 -0.00046865	  0.16042517	  0.00000000	  0.00000000	  0.00000000	  0.30181907	  0.00246885	 -0.10097818	  0.00202061	  1.56102238	 -0.00099375	  0.00000000	  0.00000000	  0.00000000
  0.28000000	 -7.30099096	437.41042241	-22.29918471	 -0.28445565	 -0.00046928	  0.16039411	  0.00000000	  0.00000000	  0.00000000	  0.30181907	  0.00246885	 -0.10097818	  0.00207771	  1.60514005	 -0.00102184	  0.00000000	  0.00000000	  0.00000000
